<svg width="1870" height="177" viewBox="0 0 1870 177" fill="none" xmlns="http://www.w3.org/2000/svg">
    <path
        d="M138.035 137.078H110.103L97.7627 104.841H40.0807L27.7408 137.078H-0.000178814L54.2381 -0.000393033H85.1358L138.035 137.078ZM68.8739 29.3667L49.1682 81.3093H88.6752L68.8739 29.3667ZM168.033 176.202H142.588V39.1239H168.033V51.9421C170.01 48.4984 173.486 45.1823 178.46 41.9937C183.498 38.805 189.429 37.2107 196.253 37.2107C205.755 37.2107 213.694 39.6341 220.072 44.4808C226.513 49.3275 231.391 55.609 234.707 63.3255C238.087 70.9782 239.777 79.2367 239.777 88.101C239.777 96.9016 238.087 105.192 234.707 112.972C231.391 120.689 226.513 126.97 220.072 131.817C213.694 136.6 205.755 138.991 196.253 138.991C189.429 138.991 183.498 137.429 178.46 134.304C173.486 131.115 170.01 127.799 168.033 124.356V176.202ZM190.322 118.52H191.948C198.325 118.52 203.618 115.778 207.827 110.294C212.1 104.809 214.236 97.4118 214.236 88.101C214.236 78.854 212.1 71.4883 207.827 66.0039C203.618 60.5195 198.325 57.7773 191.948 57.7773H190.322C186.432 57.7773 182.765 59.0209 179.321 61.508C175.941 63.9951 173.199 67.5026 171.094 72.0304C169.054 76.4945 168.033 81.8513 168.033 88.101C168.033 94.2869 169.054 99.6757 171.094 104.267C173.199 108.795 175.941 112.303 179.321 114.79C182.765 117.277 186.432 118.52 190.322 118.52ZM275.898 176.202H250.453V39.1239H275.898V51.9421C277.875 48.4984 281.35 45.1823 286.325 41.9937C291.363 38.805 297.293 37.2107 304.117 37.2107C313.619 37.2107 321.559 39.6341 327.936 44.4808C334.377 49.3275 339.256 55.609 342.572 63.3255C345.952 70.9782 347.642 79.2367 347.642 88.101C347.642 96.9016 345.952 105.192 342.572 112.972C339.256 120.689 334.377 126.97 327.936 131.817C321.559 136.6 313.619 138.991 304.117 138.991C297.293 138.991 291.363 137.429 286.325 134.304C281.35 131.115 277.875 127.799 275.898 124.356V176.202ZM298.186 118.52H299.812C306.19 118.52 311.483 115.778 315.692 110.294C319.964 104.809 322.101 97.4118 322.101 88.101C322.101 78.854 319.964 71.4883 315.692 66.0039C311.483 60.5195 306.19 57.7773 299.812 57.7773H298.186C294.296 57.7773 290.629 59.0209 287.186 61.508C283.806 63.9951 281.063 67.5026 278.959 72.0304C276.918 76.4945 275.898 81.8513 275.898 88.101C275.898 94.2869 276.918 99.6757 278.959 104.267C281.063 108.795 283.806 112.303 287.186 114.79C290.629 117.277 294.296 118.52 298.186 118.52ZM383.762 137.078H358.317V-0.000393033H383.762V137.078ZM426.579 26.4013H399.125V-0.000393033H426.579V26.4013ZM425.622 137.078H400.177V39.1239H425.622V137.078ZM483.171 138.991C475.071 138.991 467.451 137.014 460.308 133.06C453.229 129.107 447.49 123.303 443.09 115.651C438.689 107.998 436.489 98.8148 436.489 88.101C436.489 78.3439 438.339 69.6071 442.037 61.8906C445.8 54.1742 451.125 48.1477 458.012 43.8112C464.964 39.4109 473.35 37.2107 483.171 37.2107C492.928 37.2107 501.122 39.4109 507.755 43.8112C514.451 48.1477 519.457 54.0466 522.773 61.508C526.153 68.9693 527.843 77.451 527.843 86.9531C527.843 88.4199 527.811 89.9504 527.747 91.5447C527.684 93.0753 527.588 94.6058 527.46 96.1363H461.169C461.743 102.96 464.262 108.412 468.726 112.494C473.254 116.512 478.133 118.52 483.362 118.52H484.892C489.739 118.52 493.597 117.277 496.467 114.79C499.337 112.303 501.218 109.433 502.111 106.18H527.46C525.101 115.683 520.19 123.527 512.729 129.712C505.268 135.898 495.415 138.991 483.171 138.991ZM461.169 76.622H503.163C502.908 70.755 500.804 66.1633 496.85 62.8472C492.96 59.4673 488.336 57.7773 482.979 57.7773H481.353C476.124 57.7773 471.532 59.4673 467.578 62.8472C463.624 66.1633 461.488 70.755 461.169 76.622ZM576.973 138.991C567.599 138.991 559.659 136.6 553.154 131.817C546.713 126.97 541.803 120.689 538.423 112.972C535.107 105.192 533.449 96.9016 533.449 88.101C533.449 79.2367 535.107 70.9782 538.423 63.3255C541.803 55.609 546.713 49.3275 553.154 44.4808C559.659 39.6341 567.599 37.2107 576.973 37.2107C583.924 37.2107 589.855 38.805 594.766 41.9937C599.74 45.1823 603.215 48.4984 605.192 51.9421V-0.000393033H630.638V137.078H605.192V124.356C603.215 127.799 599.74 131.115 594.766 134.304C589.855 137.429 583.924 138.991 576.973 138.991ZM581.278 118.52H582.808C586.762 118.52 590.429 117.277 593.809 114.79C597.189 112.303 599.931 108.795 602.036 104.267C604.14 99.6757 605.192 94.2869 605.192 88.101C605.192 81.8513 604.14 76.4945 602.036 72.0304C599.931 67.5026 597.189 63.9951 593.809 61.508C590.429 59.0209 586.762 57.7773 582.808 57.7773H581.278C574.901 57.7773 569.576 60.4876 565.303 65.9083C561.094 71.3289 558.989 78.6627 558.989 87.9097C558.989 97.2204 561.094 104.65 565.303 110.198C569.576 115.746 574.901 118.52 581.278 118.52ZM803.511 137.078H775.579L763.239 104.841H705.557L693.217 137.078H665.476L719.715 -0.000393033H750.612L803.511 137.078ZM734.35 29.3667L714.645 81.3093H754.152L734.35 29.3667ZM833.51 137.078H808.065V39.1239H833.51V58.7339C835.487 52.3566 838.867 47.3505 843.65 43.7155C848.496 40.0167 854.587 38.1673 861.92 38.1673H866.799V61.6993H857.998C841.673 61.6993 833.51 69.8621 833.51 86.1878V137.078ZM913.251 138.991C904.514 138.991 896.574 136.951 889.432 132.869C882.289 128.788 876.614 122.921 872.405 115.268C868.259 107.615 866.187 98.5597 866.187 88.101C866.187 77.7061 868.259 68.6824 872.405 61.0297C876.614 53.377 882.289 47.51 889.432 43.4285C896.574 39.2833 904.514 37.2107 913.251 37.2107C926.069 37.2107 936.368 40.1761 944.148 46.107C951.992 52.0378 956.393 61.1572 957.349 73.4653H931.809C931.043 68.6186 929.226 64.7922 926.356 61.9863C923.486 59.1803 919.373 57.7773 914.016 57.7773H912.486C907.639 57.7773 903.685 59.1484 900.624 61.8906C897.563 64.6328 895.299 68.2997 893.832 72.8913C892.429 77.4192 891.728 82.4891 891.728 88.101C891.728 93.6492 892.429 98.751 893.832 103.406C895.299 107.998 897.563 111.665 900.624 114.407C903.685 117.149 907.639 118.52 912.486 118.52H914.016C919.373 118.52 923.486 117.117 926.356 114.311C929.226 111.505 931.043 107.679 931.809 102.832H957.349C956.393 115.14 951.992 124.26 944.148 130.191C936.368 136.058 926.069 138.991 913.251 138.991ZM992.992 137.078H967.546V-0.000393033H992.992V53.4727C995.989 48.4984 1000.07 44.5445 1005.24 41.611C1010.4 38.6775 1016.17 37.2107 1022.55 37.2107C1034.35 37.2107 1042.99 40.7182 1048.47 47.7332C1053.96 54.6843 1056.7 63.5806 1056.7 74.4219V137.078H1031.16V77.3873C1031.16 71.01 1029.82 66.1633 1027.14 62.8472C1024.46 59.4673 1020.67 57.7773 1015.76 57.7773H1014.13C1010.24 57.7773 1006.67 58.8933 1003.42 61.1253C1000.23 63.3574 997.679 66.3547 995.766 70.1172C993.916 73.8798 992.992 78.0569 992.992 82.6485V137.078ZM1098.56 26.4013H1071.11V-0.000393033H1098.56V26.4013ZM1097.6 137.078H1072.16V39.1239H1097.6V137.078ZM1156.11 118.329L1181.74 39.1239H1208.05L1174.09 137.078H1137.07L1103.21 39.1239H1130.28L1156.11 118.329ZM1252.49 138.991C1244.39 138.991 1236.77 137.014 1229.63 133.06C1222.55 129.107 1216.81 123.303 1212.41 115.651C1208.01 107.998 1205.81 98.8148 1205.81 88.101C1205.81 78.3439 1207.66 69.6071 1211.36 61.8906C1215.12 54.1742 1220.45 48.1477 1227.34 43.8112C1234.29 39.4109 1242.67 37.2107 1252.49 37.2107C1262.25 37.2107 1270.45 39.4109 1277.08 43.8112C1283.77 48.1477 1288.78 54.0466 1292.1 61.508C1295.48 68.9693 1297.17 77.451 1297.17 86.9531C1297.17 88.4199 1297.13 89.9504 1297.07 91.5447C1297.01 93.0753 1296.91 94.6058 1296.78 96.1363H1230.49C1231.07 102.96 1233.59 108.412 1238.05 112.494C1242.58 116.512 1247.46 118.52 1252.69 118.52H1254.22C1259.06 118.52 1262.92 117.277 1265.79 114.79C1268.66 112.303 1270.54 109.433 1271.43 106.18H1296.78C1294.42 115.683 1289.51 123.527 1282.05 129.712C1274.59 135.898 1264.74 138.991 1252.49 138.991ZM1230.49 76.622H1272.49C1272.23 70.755 1270.13 66.1633 1266.17 62.8472C1262.28 59.4673 1257.66 57.7773 1252.3 57.7773H1250.68C1245.45 57.7773 1240.86 59.4673 1236.9 62.8472C1232.95 66.1633 1230.81 70.755 1230.49 76.622ZM1464.97 137.078H1437.04L1424.7 104.841H1367.02L1354.68 137.078H1326.94L1381.17 -0.000393033H1412.07L1464.97 137.078ZM1395.81 29.3667L1376.1 81.3093H1415.61L1395.81 29.3667ZM1524.34 137.078H1499.46C1482.44 137.078 1473.92 128.596 1473.92 111.633V59.7861H1453.74V39.1239H1473.92V7.46096H1499.46V39.1239H1521.37V59.7861H1499.46V104.841C1499.46 109.242 1500.13 112.143 1501.47 113.546C1502.88 114.885 1505.78 115.555 1510.18 115.555H1524.34V137.078ZM1573.75 138.991C1565.65 138.991 1558.03 137.014 1550.89 133.06C1543.81 129.107 1538.07 123.303 1533.67 115.651C1529.27 107.998 1527.07 98.8148 1527.07 88.101C1527.07 78.3439 1528.92 69.6071 1532.62 61.8906C1536.38 54.1742 1541.71 48.1477 1548.59 43.8112C1555.55 39.4109 1563.93 37.2107 1573.75 37.2107C1583.51 37.2107 1591.7 39.4109 1598.34 43.8112C1605.03 48.1477 1610.04 54.0466 1613.36 61.508C1616.74 68.9693 1618.43 77.451 1618.43 86.9531C1618.43 88.4199 1618.39 89.9504 1618.33 91.5447C1618.27 93.0753 1618.17 94.6058 1618.04 96.1363H1551.75C1552.33 102.96 1554.84 108.412 1559.31 112.494C1563.84 116.512 1568.72 118.52 1573.94 118.52H1575.47C1580.32 118.52 1584.18 117.277 1587.05 114.79C1589.92 112.303 1591.8 109.433 1592.69 106.18H1618.04C1615.68 115.683 1610.77 123.527 1603.31 129.712C1595.85 135.898 1586 138.991 1573.75 138.991ZM1551.75 76.622H1593.75C1593.49 70.755 1591.39 66.1633 1587.43 62.8472C1583.54 59.4673 1578.92 57.7773 1573.56 57.7773H1571.94C1566.71 57.7773 1562.11 59.4673 1558.16 62.8472C1554.21 66.1633 1552.07 70.755 1551.75 76.622ZM1655.22 137.078H1629.77V-0.000393033H1655.22V137.078ZM1698.03 26.4013H1670.58V-0.000393033H1698.03V26.4013ZM1697.08 137.078H1671.63V39.1239H1697.08V137.078ZM1754.62 138.991C1746.52 138.991 1738.9 137.014 1731.76 133.06C1724.68 129.107 1718.94 123.303 1714.54 115.651C1710.14 107.998 1707.94 98.8148 1707.94 88.101C1707.94 78.3439 1709.79 69.6071 1713.49 61.8906C1717.25 54.1742 1722.58 48.1477 1729.47 43.8112C1736.42 39.4109 1744.8 37.2107 1754.62 37.2107C1764.38 37.2107 1772.58 39.4109 1779.21 43.8112C1785.9 48.1477 1790.91 54.0466 1794.23 61.508C1797.61 68.9693 1799.3 77.451 1799.3 86.9531C1799.3 88.4199 1799.26 89.9504 1799.2 91.5447C1799.14 93.0753 1799.04 94.6058 1798.91 96.1363H1732.62C1733.2 102.96 1735.72 108.412 1740.18 112.494C1744.71 116.512 1749.59 118.52 1754.82 118.52H1756.35C1761.19 118.52 1765.05 117.277 1767.92 114.79C1770.79 112.303 1772.67 109.433 1773.56 106.18H1798.91C1796.55 115.683 1791.64 123.527 1784.18 129.712C1776.72 135.898 1766.87 138.991 1754.62 138.991ZM1732.62 76.622H1774.62C1774.36 70.755 1772.26 66.1633 1768.3 62.8472C1764.41 59.4673 1759.79 57.7773 1754.43 57.7773H1752.81C1747.58 57.7773 1742.99 59.4673 1739.03 62.8472C1735.08 66.1633 1732.94 70.755 1732.62 76.622ZM1836.09 137.078H1810.64V39.1239H1836.09V58.7339C1838.06 52.3566 1841.44 47.3505 1846.23 43.7155C1851.07 40.0167 1857.16 38.1673 1864.5 38.1673H1869.38V61.6993H1860.58C1844.25 61.6993 1836.09 69.8621 1836.09 86.1878V137.078Z"
        fill="#EAEAEA"/>
</svg>
